<svg xmlns="http://www.w3.org/2000/svg" viewBox="0 0 180 180">
  <defs>
    <linearGradient id="flame" x1="20%" x2="72%" y1="8%" y2="94%">
      <stop offset="0%" stop-color="#ffca54" />
      <stop offset="35%" stop-color="#ff8d2d" />
      <stop offset="72%" stop-color="#f1441c" />
      <stop offset="100%" stop-color="#b91409" />
    </linearGradient>
    <linearGradient id="inner" x1="24%" x2="74%" y1="12%" y2="88%">
      <stop offset="0%" stop-color="#fff6d8" />
      <stop offset="32%" stop-color="#ffb244" />
      <stop offset="100%" stop-color="#ef4a1c" />
    </linearGradient>
  </defs>
  <path
    d="M101 12 C123 26 140 49 144 77 C148 99 142 121 130 138 C117 156 97 170 71 170 C48 170 28 157 20 136 C13 118 17 96 31 78 C38 69 46 59 58 50 C58 78 70 99 92 111 C83 92 84 66 90 40 C92 29 96 19 101 12 Z"
    fill="url(#flame)"
  />
  <path
    d="M98 40 C111 53 120 70 120 88 C120 110 103 129 77 134 C58 138 38 128 33 109 C28 89 37 72 53 59 C53 80 62 97 78 108 C71 94 73 72 79 54 C82 47 89 41 98 40 Z"
    fill="url(#inner)"
  />
  <path
    d="M102 27 C119 39 129 58 132 79"
    fill="none"
    opacity=".85"
    stroke="#fff8ec"
    stroke-linecap="round"
    stroke-width="8"
  />
  <path
    d="M75 57 C72 71 76 88 86 101"
    fill="none"
    opacity=".75"
    stroke="#fff3e2"
    stroke-linecap="round"
    stroke-width="5"
  />
  <path
    d="M101 12 C123 26 140 49 144 77 C148 99 142 121 130 138 C117 156 97 170 71 170 C48 170 28 157 20 136 C13 118 17 96 31 78 C38 69 46 59 58 50"
    fill="none"
    opacity=".74"
    stroke="#fff2df"
    stroke-linecap="round"
    stroke-linejoin="round"
    stroke-width="3"
  />
</svg>
