<svg xmlns="http://www.w3.org/2000/svg" viewBox="0 0 72 72">
  <defs>
    <linearGradient id="flame" x1="20%" x2="72%" y1="8%" y2="94%">
      <stop offset="0%" stop-color="#ffca54" />
      <stop offset="35%" stop-color="#ff8d2d" />
      <stop offset="72%" stop-color="#f1441c" />
      <stop offset="100%" stop-color="#b91409" />
    </linearGradient>
    <linearGradient id="inner" x1="24%" x2="74%" y1="12%" y2="88%">
      <stop offset="0%" stop-color="#fff6d8" />
      <stop offset="32%" stop-color="#ffb244" />
      <stop offset="100%" stop-color="#ef4a1c" />
    </linearGradient>
  </defs>
  <path
    d="M40 4 C49 10 56 20 58 31 C60 40 58 49 53 56 C48 63 39 68 29 68 C20 68 11 63 8 55 C5 48 7 39 13 31 C16 27 20 23 23 20 C23 31 28 39 37 44 C34 36 34 25 36 16 C36.8 11.4 38.2 7.4 40 4 Z"
    fill="url(#flame)"
  />
  <path
    d="M39 16 C44 21 48 29 48 37 C48 46 41 54 31 56 C24 58 16 54 14 46 C12 38 16 31 22 26 C22 34 25 41 31 45 C28 39 29 30 32 23 C33.6 19.6 36 17 39 16 Z"
    fill="url(#inner)"
  />
  <path
    d="M41 10 C48 16 52 25 53 34"
    fill="none"
    opacity=".85"
    stroke="#fff8ec"
    stroke-linecap="round"
    stroke-width="3.4"
  />
  <path
    d="M30 23 C29 29 31 36 35 41"
    fill="none"
    opacity=".75"
    stroke="#fff3e2"
    stroke-linecap="round"
    stroke-width="2.3"
  />
  <path
    d="M40 4 C49 10 56 20 58 31 C60 40 58 49 53 56 C48 63 39 68 29 68 C20 68 11 63 8 55 C5 48 7 39 13 31 C16 27 20 23 23 20"
    fill="none"
    opacity=".74"
    stroke="#fff2df"
    stroke-linecap="round"
    stroke-linejoin="round"
    stroke-width="1.3"
  />
</svg>
